HIERARCHY
ROOT mixamorig:Hips
{
	OFFSET 0.000000 77.627144 7.190781
	CHANNELS 6 Xposition Yposition Zposition Xrotation Yrotation Zrotation
	JOINT mixamorig:Spine
	{
		OFFSET 0.000000 14.685707 -1.734714
		CHANNELS 3 Xrotation Yrotation Zrotation
		JOINT mixamorig:Spine1
		{
			OFFSET 0.000000 17.133331 -2.023833
			CHANNELS 3 Xrotation Yrotation Zrotation
			JOINT mixamorig:Spine2
			{
				OFFSET 0.000000 19.580948 -2.312953
				CHANNELS 3 Xrotation Yrotation Zrotation
				JOINT mixamorig:Neck
				{
					OFFSET 0.000000 22.028564 -2.602070
					CHANNELS 3 Xrotation Yrotation Zrotation
					JOINT mixamorig:Head
					{
						OFFSET 0.000000 7.772293 1.167654
						CHANNELS 3 Xrotation Yrotation Zrotation
						JOINT mixamorig:HeadTop_End
						{
							OFFSET 0.000000 26.518158 3.983897
							CHANNELS 3 Xrotation Yrotation Zrotation
							End Site
							{
								OFFSET 0.000000 26.815750 0.000000
							}
						}
					}
				}
				JOINT mixamorig:LeftShoulder
				{
					OFFSET 11.646637 18.513367 -2.583829
					CHANNELS 3 Xrotation Yrotation Zrotation
					JOINT mixamorig:LeftArm
					{
						OFFSET 23.494797 -6.787735 0.036483
						CHANNELS 3 Xrotation Yrotation Zrotation
						JOINT mixamorig:LeftForeArm
						{
							OFFSET 22.628841 -2.236465 0.895561
							CHANNELS 3 Xrotation Yrotation Zrotation
							JOINT mixamorig:LeftHand
							{
								OFFSET 32.235813 0.214081 0.341628
								CHANNELS 3 Xrotation Yrotation Zrotation
								JOINT mixamorig:LeftHandThumb1
								{
									OFFSET 4.043732 -2.301453 4.675424
									CHANNELS 3 Xrotation Yrotation Zrotation
									JOINT mixamorig:LeftHandThumb2
									{
										OFFSET 3.235001 -1.841141 3.740334
										CHANNELS 3 Xrotation Yrotation Zrotation
										JOINT mixamorig:LeftHandThumb3
										{
											OFFSET 4.136284 -1.355438 2.884997
											CHANNELS 3 Xrotation Yrotation Zrotation
											JOINT mixamorig:LeftHandThumb4
											{
												OFFSET 3.443222 -1.440781 1.895251
												CHANNELS 3 Xrotation Yrotation Zrotation
												End Site
												{
													OFFSET 3.082619 -1.455811 2.429330
												}
											}
										}
									}
								}
								JOINT mixamorig:LeftHandIndex1
								{
									OFFSET 12.534279 0.552322 5.370454
									CHANNELS 3 Xrotation Yrotation Zrotation
									JOINT mixamorig:LeftHandIndex2
									{
										OFFSET 4.462021 -0.042068 -0.222766
										CHANNELS 3 Xrotation Yrotation Zrotation
										JOINT mixamorig:LeftHandIndex3
										{
											OFFSET 4.426414 -0.140015 -0.221126
											CHANNELS 3 Xrotation Yrotation Zrotation
											JOINT mixamorig:LeftHandIndex4
											{
												OFFSET 3.584976 -0.033737 -0.180877
												CHANNELS 3 Xrotation Yrotation Zrotation
												End Site
												{
													OFFSET 3.584984 -0.033707 -0.180676
												}
											}
										}
									}
								}
								JOINT mixamorig:LeftHandMiddle1
								{
									OFFSET 12.067444 0.830978 1.411757
									CHANNELS 3 Xrotation Yrotation Zrotation
									JOINT mixamorig:LeftHandMiddle2
									{
										OFFSET 5.488625 0.110443 -0.140360
										CHANNELS 3 Xrotation Yrotation Zrotation
										JOINT mixamorig:LeftHandMiddle3
										{
											OFFSET 5.193268 -0.285706 -0.132956
											CHANNELS 3 Xrotation Yrotation Zrotation
											JOINT mixamorig:LeftHandMiddle4
											{
												OFFSET 4.443779 -0.316895 -0.113542
												CHANNELS 3 Xrotation Yrotation Zrotation
												End Site
												{
													OFFSET 4.443962 -0.316620 -0.107084
												}
											}
										}
									}
								}
								JOINT mixamorig:LeftHandRing1
								{
									OFFSET 12.202324 0.602158 -2.428782
									CHANNELS 3 Xrotation Yrotation Zrotation
									JOINT mixamorig:LeftHandRing2
									{
										OFFSET 4.681709 0.293594 -0.070412
										CHANNELS 3 Xrotation Yrotation Zrotation
										JOINT mixamorig:LeftHandRing3
										{
											OFFSET 4.517784 0.001785 -0.067170
											CHANNELS 3 Xrotation Yrotation Zrotation
											JOINT mixamorig:LeftHandRing4
											{
												OFFSET 3.536186 -0.473984 -0.050865
												CHANNELS 3 Xrotation Yrotation Zrotation
												End Site
												{
													OFFSET 3.536438 -0.473450 -0.036327
												}
											}
										}
									}
								}
								JOINT mixamorig:LeftHandPinky1
								{
									OFFSET 11.261032 -0.021225 -5.740205
									CHANNELS 3 Xrotation Yrotation Zrotation
									JOINT mixamorig:LeftHandPinky2
									{
										OFFSET 4.446136 0.226913 -0.056313
										CHANNELS 3 Xrotation Yrotation Zrotation
										JOINT mixamorig:LeftHandPinky3
										{
											OFFSET 3.536148 0.035980 -0.044635
											CHANNELS 3 Xrotation Yrotation Zrotation
											JOINT mixamorig:LeftHandPinky4
											{
												OFFSET 2.822449 0.069366 -0.035670
												CHANNELS 3 Xrotation Yrotation Zrotation
												End Site
												{
													OFFSET 2.822449 0.069397 -0.035034
												}
											}
										}
									}
								}
							}
						}
					}
				}
				JOINT mixamorig:RightShoulder
				{
					OFFSET -11.646637 18.513367 -2.620312
					CHANNELS 3 Xrotation Yrotation Zrotation
					JOINT mixamorig:RightArm
					{
						OFFSET -23.494804 -6.787735 -0.036485
						CHANNELS 3 Xrotation Yrotation Zrotation
						JOINT mixamorig:RightForeArm
						{
							OFFSET -22.628826 -2.236481 0.960591
							CHANNELS 3 Xrotation Yrotation Zrotation
							JOINT mixamorig:RightHand
							{
								OFFSET -32.235806 0.214096 0.317908
								CHANNELS 3 Xrotation Yrotation Zrotation
								JOINT mixamorig:RightHandThumb1
								{
									OFFSET -4.056908 -2.304855 4.721249
									CHANNELS 3 Xrotation Yrotation Zrotation
									JOINT mixamorig:RightHandThumb2
									{
										OFFSET -3.245529 -1.843887 3.777003
										CHANNELS 3 Xrotation Yrotation Zrotation
										JOINT mixamorig:RightHandThumb3
										{
											OFFSET -4.153908 -1.359879 2.907515
											CHANNELS 3 Xrotation Yrotation Zrotation
											JOINT mixamorig:RightHandThumb4
											{
												OFFSET -3.491310 -1.375549 1.529044
												CHANNELS 3 Xrotation Yrotation Zrotation
												End Site
												{
													OFFSET -3.035126 -1.400162 2.290608
												}
											}
										}
									}
								}
								JOINT mixamorig:RightHandIndex1
								{
									OFFSET -12.331047 0.757294 5.317495
									CHANNELS 3 Xrotation Yrotation Zrotation
									JOINT mixamorig:RightHandIndex2
									{
										OFFSET -4.758568 -0.224289 -0.035605
										CHANNELS 3 Xrotation Yrotation Zrotation
										JOINT mixamorig:RightHandIndex3
										{
											OFFSET -4.415932 -0.181503 -0.033052
											CHANNELS 3 Xrotation Yrotation Zrotation
											JOINT mixamorig:RightHandIndex4
											{
												OFFSET -3.678474 0.414856 -0.027373
												CHANNELS 3 Xrotation Yrotation Zrotation
												End Site
												{
													OFFSET -3.678375 0.414001 -0.046045
												}
											}
										}
									}
								}
								JOINT mixamorig:RightHandMiddle1
								{
									OFFSET -12.051239 0.663742 1.548264
									CHANNELS 3 Xrotation Yrotation Zrotation
									JOINT mixamorig:RightHandMiddle2
									{
										OFFSET -5.374817 0.301971 -0.166537
										CHANNELS 3 Xrotation Yrotation Zrotation
										JOINT mixamorig:RightHandMiddle3
										{
											OFFSET -5.310471 -0.301758 -0.164593
											CHANNELS 3 Xrotation Yrotation Zrotation
											JOINT mixamorig:RightHandMiddle4
											{
												OFFSET -4.485832 -0.342514 -0.139207
												CHANNELS 3 Xrotation Yrotation Zrotation
												End Site
												{
													OFFSET -4.486198 -0.342010 -0.127963
												}
											}
										}
									}
								}
								JOINT mixamorig:RightHandRing1
								{
									OFFSET -12.195183 0.742325 -2.381488
									CHANNELS 3 Xrotation Yrotation Zrotation
									JOINT mixamorig:RightHandRing2
									{
										OFFSET -4.583191 0.034424 -0.012763
										CHANNELS 3 Xrotation Yrotation Zrotation
										JOINT mixamorig:RightHandRing3
										{
											OFFSET -4.612793 0.026199 -0.012632
											CHANNELS 3 Xrotation Yrotation Zrotation
											JOINT mixamorig:RightHandRing4
											{
												OFFSET -3.314957 -0.541855 -0.006643
												CHANNELS 3 Xrotation Yrotation Zrotation
												End Site
												{
													OFFSET -3.315063 -0.541092 0.010116
												}
											}
										}
									}
								}
								JOINT mixamorig:RightHandPinky1
								{
									OFFSET -11.332825 -0.054398 -5.574547
									CHANNELS 3 Xrotation Yrotation Zrotation
									JOINT mixamorig:RightHandPinky2
									{
										OFFSET -4.462639 0.300003 -0.206312
										CHANNELS 3 Xrotation Yrotation Zrotation
										JOINT mixamorig:RightHandPinky3
										{
											OFFSET -3.493774 0.049591 -0.161451
											CHANNELS 3 Xrotation Yrotation Zrotation
											JOINT mixamorig:RightHandPinky4
											{
												OFFSET -2.793701 0.056946 -0.129098
												CHANNELS 3 Xrotation Yrotation Zrotation
												End Site
												{
													OFFSET -2.793793 0.057053 -0.126857
												}
											}
										}
									}
								}
							}
						}
					}
				}
			}
		}
	}
	JOINT mixamorig:LeftUpLeg
	{
		OFFSET 13.580879 -8.149223 -1.796077
		CHANNELS 3 Xrotation Yrotation Zrotation
		JOINT mixamorig:LeftLeg
		{
			OFFSET 3.676140 -35.802425 -2.676071
			CHANNELS 3 Xrotation Yrotation Zrotation
			JOINT mixamorig:LeftFoot
			{
				OFFSET -0.369089 -26.709160 -2.057140
				CHANNELS 3 Xrotation Yrotation Zrotation
				JOINT mixamorig:LeftToeBase
				{
					OFFSET -1.192477 -6.581660 13.403662
					CHANNELS 3 Xrotation Yrotation Zrotation
					JOINT mixamorig:LeftToe_End
					{
						OFFSET -0.351336 -0.163913 5.937977
						CHANNELS 3 Xrotation Yrotation Zrotation
						End Site
						{
							OFFSET -0.351338 -0.163913 5.937977
						}
					}
				}
			}
		}
	}
	JOINT mixamorig:RightUpLeg
	{
		OFFSET -13.580879 -8.149223 -2.255285
		CHANNELS 3 Xrotation Yrotation Zrotation
		JOINT mixamorig:RightLeg
		{
			OFFSET -3.676140 -35.802425 -2.316821
			CHANNELS 3 Xrotation Yrotation Zrotation
			JOINT mixamorig:RightFoot
			{
				OFFSET 0.369059 -26.709040 -2.090143
				CHANNELS 3 Xrotation Yrotation Zrotation
				JOINT mixamorig:RightToeBase
				{
					OFFSET 1.192393 -6.582436 13.372205
					CHANNELS 3 Xrotation Yrotation Zrotation
					JOINT mixamorig:RightToe_End
					{
						OFFSET 0.351307 -0.164255 5.913618
						CHANNELS 3 Xrotation Yrotation Zrotation
						End Site
						{
							OFFSET 0.351309 -0.164255 5.913618
						}
					}
				}
			}
		}
	}
}
MOTION
Frames: 4
Frame Time: 0.016667
-0.751905 62.345333 2.295515 13.815853 1.194857 -0.813516 14.673688 -1.177925 5.060424 5.508360 -0.089067 0.319985 5.507972 -0.130544 0.316222 -0.396744 0.386389 0.109288 -31.179342 3.925789 -3.315688 0.000001 0.000000 0.000000 3.193072 -10.745638 29.067731 -65.113477 -22.317621 -8.838600 -7.020398 -51.844493 -9.431169 18.945620 -7.360491 14.694587 8.225329 15.925428 11.592107 3.539004 4.739353 -6.097857 -4.844275 -4.083320 5.619811 -0.000001 -0.000002 0.000000 0.994933 -13.231309 6.403644 -0.103713 0.269243 -2.293677 -0.379956 0.554378 -8.594866 0.000000 0.000005 -0.000004 0.309327 -5.814962 0.394158 -0.065698 0.593780 -3.723796 -0.116281 0.672436 -8.013264 0.000001 0.000001 0.000001 1.019767 2.168255 -7.230405 -0.095261 1.030762 -10.537790 0.028756 0.820731 -3.463713 0.000002 -0.000001 -0.000000 3.272063 12.671922 -11.010303 0.149534 -2.675940 -16.934435 -0.077368 0.919245 -13.295462 -0.000000 -0.000001 -0.000000 -2.624582 -15.379501 -10.075974 43.986589 -14.152177 63.904903 -0.243461 4.057218 6.029211 13.792556 -2.175805 7.509231 -4.843261 -15.366305 -19.338624 4.220507 -1.859825 6.555438 -6.083598 10.687333 -4.186520 -0.000002 0.000001 0.000002 -0.435019 11.083456 3.891428 0.009090 -0.632580 9.575351 -0.064486 0.002901 8.632432 0.000001 0.000000 0.000000 -0.175504 9.606542 14.594784 -0.197227 -0.922261 8.592762 -0.841395 -0.370329 3.314727 -0.000001 0.000000 0.000002 0.815693 4.696042 18.167354 0.204790 -1.419137 22.023960 -0.791195 -0.809585 0.091375 -0.000001 -0.000000 0.000000 1.299959 4.413141 27.683769 -0.816798 -1.785245 24.141430 -0.541387 -0.838484 13.511843 0.000000 0.000000 -0.000002 14.154359 6.370578 -7.221836 21.456476 2.659517 0.818714 -43.163490 -0.985412 1.459670 -13.026237 0.000007 -0.000016 -0.000001 -0.000001 -0.000001 -67.044351 -3.648865 2.976373 26.207099 6.310650 -2.687089 27.394601 -0.090797 1.080281 -2.291690 0.000002 0.000002 0.000001 0.000000 0.000001 
-0.739688 62.174580 1.456503 13.486183 1.363036 -0.694942 15.838965 -1.045946 4.998764 5.328286 -0.088109 0.264779 5.327812 -0.127240 0.261654 -0.396640 0.309956 0.087668 -31.656298 3.449381 -3.200844 0.000001 -0.000000 -0.000000 2.951241 -10.068436 29.383959 -67.294507 -22.933736 -8.567125 -6.882359 -51.302610 -9.323827 19.310345 -6.953355 14.703469 8.225332 15.925428 11.592104 3.539003 4.739356 -6.097853 -4.844270 -4.083317 5.619815 -0.000001 0.000004 -0.000001 1.002380 -13.235101 6.465383 -0.102360 0.266918 -2.263501 -0.362863 0.517731 -8.147746 -0.000001 -0.000002 0.000002 0.308784 -5.819312 0.452394 -0.065155 0.591350 -3.691503 -0.113254 0.649414 -7.710120 0.000002 -0.000003 0.000002 1.011120 2.164634 -7.172368 -0.095208 1.028388 -10.505540 0.028849 0.810682 -3.322797 -0.000002 -0.000002 0.000001 3.251847 12.670520 -10.948602 0.149276 -2.678152 -16.904220 -0.077407 0.918127 -13.280354 -0.000001 -0.000000 -0.000001 -2.657776 -15.273418 -10.378096 44.651802 -15.097609 64.831090 -0.177338 3.389819 6.025895 14.486269 -2.809711 6.981506 -4.843261 -15.366302 -19.338627 4.220508 -1.859834 6.555438 -6.083596 10.687331 -4.186519 -0.000003 0.000005 0.000009 -0.478500 11.035777 4.517909 0.008969 -0.631581 9.560746 -0.064022 0.009579 8.536473 -0.000002 -0.000001 0.000001 -0.201740 9.563337 15.196614 -0.197605 -0.923609 8.614127 -0.843316 -0.365194 3.239856 -0.000000 0.000001 -0.000002 0.841029 4.663358 18.763438 0.205267 -1.420445 22.045320 -0.793541 -0.806602 0.049547 -0.000001 -0.000001 -0.000001 1.329260 4.384503 28.301611 -0.816525 -1.784196 24.126851 -0.541164 -0.837986 13.504541 0.000000 0.000001 0.000003 15.168146 5.790559 -7.366971 18.296528 2.555746 0.486285 -44.395017 -1.334825 1.917068 -9.760370 0.000002 -0.000010 -0.000000 0.000000 -0.000000 -67.392452 -2.679918 2.996478 27.416646 4.374156 -2.524927 26.756260 -0.159002 0.647829 -2.699542 -0.000002 0.000002 0.000001 -0.000000 0.000000 
-0.730510 62.135128 0.667387 13.261109 1.550383 -0.576928 16.941442 -0.906042 4.952560 5.120813 -0.087613 0.215524 5.120268 -0.124518 0.213003 -0.396527 0.227159 0.064250 -32.114146 2.962304 -3.134147 0.000001 -0.000000 0.000000 2.753815 -9.524543 29.612565 -69.443947 -23.283159 -8.499756 -6.854932 -51.193395 -9.302590 19.561928 -6.639699 14.650879 8.225333 15.925431 11.592107 3.539004 4.739351 -6.097854 -4.844272 -4.083319 5.619812 0.000000 0.000003 0.000000 1.059104 -13.263699 6.934756 -0.114537 0.288139 -2.537776 -0.342806 0.475674 -7.632356 -0.000000 0.000001 0.000001 0.304737 -5.852492 0.895109 -0.069078 0.609109 -3.927510 -0.110321 0.628091 -7.429192 0.000001 -0.000000 0.000001 0.945510 2.136623 -6.731265 -0.095552 1.045683 -10.741682 0.028882 0.808062 -3.286034 0.000001 -0.000000 -0.000000 3.098166 12.659054 -10.479569 0.151619 -2.658007 -17.178776 -0.077036 0.928282 -13.417686 0.000000 -0.000001 -0.000001 -2.660994 -15.034659 -10.651266 45.469877 -15.919938 65.999585 -0.122217 2.832774 6.023733 14.952590 -3.522753 6.384191 -4.843262 -15.366305 -19.338622 4.220510 -1.859834 6.555437 -6.083597 10.687331 -4.186519 -0.000002 0.000002 0.000002 -0.528564 10.979589 5.248441 0.010225 -0.643988 9.742322 -0.063016 0.023887 8.330978 -0.000003 -0.000000 0.000002 -0.231741 9.512585 15.898462 -0.201539 -0.937372 8.830351 -0.848037 -0.357969 3.130921 -0.000000 0.000000 0.000000 0.871025 4.625592 19.458710 0.209922 -1.433732 22.261653 -0.799941 -0.807752 0.050689 -0.000000 -0.000001 -0.000003 1.363796 4.351498 29.022232 -0.819952 -1.797385 24.308240 -0.544104 -0.844165 13.595240 0.000000 -0.000003 0.000001 15.367676 5.766774 -7.388107 16.847404 2.235688 0.152339 -45.322209 -1.693244 2.242252 -6.987862 0.000002 -0.000008 0.000000 -0.000000 -0.000001 -67.912305 -1.955160 2.949221 29.738736 2.308945 -2.187619 25.076240 -0.273341 -0.134583 -3.001825 0.000005 0.000004 0.000001 0.000000 0.000000 
-0.715931 62.252151 -0.096334 13.145582 1.770318 -0.457669 17.980958 -0.755025 4.917684 4.887505 -0.087636 0.172504 4.886878 -0.122431 0.170551 -0.396448 0.135689 0.038379 -32.571133 2.451074 -3.111971 0.000000 -0.000000 -0.000000 2.606783 -9.125473 29.774769 -71.583319 -23.346309 -8.574529 -6.933326 -51.504295 -9.363347 19.703233 -6.441292 14.512724 8.225331 15.925424 11.592108 3.539008 4.739363 -6.097851 -4.844274 -4.083315 5.619813 -0.000002 0.000003 -0.000007 1.142729 -13.304791 7.623156 -0.134747 0.323916 -2.998258 -0.321457 0.431897 -7.094185 -0.000001 0.000001 -0.000002 0.299281 -5.901145 1.544329 -0.075564 0.639378 -4.329373 -0.107596 0.608738 -7.174159 0.000002 0.000003 -0.000001 0.849696 2.094669 -6.084560 -0.095953 1.075115 -11.143604 0.028855 0.810359 -3.318148 -0.000000 -0.000001 -0.000000 2.873015 12.640001 -9.791908 0.155745 -2.624226 -17.639751 -0.076343 0.945341 -13.648268 0.000001 0.000000 -0.000001 -2.635640 -14.664022 -10.905708 46.429635 -16.587485 67.425353 -0.078521 2.391262 6.022362 15.212918 -4.330785 5.719015 -4.843264 -15.366298 -19.338620 4.220509 -1.859834 6.555441 -6.083597 10.687333 -4.186517 -0.000004 0.000002 0.000004 -0.590918 10.907498 6.173935 0.012385 -0.664543 10.043242 -0.061562 0.043182 8.053863 -0.000000 0.000000 0.000004 -0.268836 9.447772 16.787700 -0.207646 -0.959202 9.172575 -0.854570 -0.349132 2.996283 -0.000000 0.000000 0.000002 0.909695 4.578242 20.339760 0.217442 -1.454701 22.604016 -0.808776 -0.811182 0.074846 0.000001 -0.000002 -0.000003 1.408181 4.310296 29.935452 -0.825548 -1.819259 24.608787 -0.548948 -0.854389 13.745536 -0.000000 0.000001 0.000002 13.254999 6.221015 -7.136994 20.679846 1.760856 -0.272736 -46.954293 -1.961689 2.582371 -5.186383 -0.000004 -0.000005 -0.000000 0.000001 -0.000000 -68.409173 -1.569142 2.846007 32.755043 0.435565 -1.795475 22.579268 -0.408179 -1.041583 -3.236384 0.000002 0.000004 0.000002 0.000000 -0.000000 
